<svg xmlns="http://www.w3.org/2000/svg" width="36.932" height="29.018" viewBox="0 0 36.932 29.018">
  <g id="black-back-closed-envelope-shape" transform="translate(0)">
    <g id="Group_14" data-name="Group 14" transform="translate(0 0)">
      <path id="Path_22" data-name="Path 22" d="M49.444,334.807a3.156,3.156,0,0,0,2.161-.815L41.141,323.528l-.724.521q-1.175.865-1.907,1.35a11.747,11.747,0,0,1-1.948.989,5.936,5.936,0,0,1-2.267.5h-.041a5.933,5.933,0,0,1-2.267-.5,11.71,11.71,0,0,1-1.948-.989q-.732-.484-1.907-1.35c-.218-.16-.46-.336-.722-.524L16.946,333.991a3.157,3.157,0,0,0,2.161.815Z" transform="translate(-15.81 -305.789)"/>
      <path id="Path_23" data-name="Path 23" d="M2.082,200.348A10.927,10.927,0,0,1,0,198.555v15.92l9.222-9.222Q6.455,203.32,2.082,200.348Z" transform="translate(0 -189.199)"/>
      <path id="Path_24" data-name="Path 24" d="M420.467,200.348q-4.211,2.85-7.158,4.908l9.219,9.219v-15.92A11.374,11.374,0,0,1,420.467,200.348Z" transform="translate(-385.596 -189.199)"/>
      <path id="Path_25" data-name="Path 25" d="M33.639,59.013H3.3A2.943,2.943,0,0,0,.861,60.084a4.158,4.158,0,0,0-.855,2.679,4.816,4.816,0,0,0,1.133,2.813,10.225,10.225,0,0,0,2.411,2.38q.7.495,4.225,2.937c1.268.879,2.371,1.645,3.319,2.306.808.563,1.5,1.05,2.08,1.455l.308.219.568.409q.67.484,1.113.783t1.072.67a6.252,6.252,0,0,0,1.185.556,3.279,3.279,0,0,0,1.03.185h.041a3.28,3.28,0,0,0,1.03-.185,6.239,6.239,0,0,0,1.185-.556q.628-.371,1.072-.67t1.113-.783l.568-.409.308-.22,2.086-1.449,7.56-5.249a9.8,9.8,0,0,0,2.514-2.535,5.453,5.453,0,0,0,1.009-3.112,3.324,3.324,0,0,0-3.3-3.3Z" transform="translate(-0.006 -59.013)"/>
    </g>
  </g>
</svg>
