<svg xmlns="http://www.w3.org/2000/svg" width="33.513" height="31.792" viewBox="0 0 33.513 31.792">
  <g id="phone-24px" transform="translate(0)">
    <path id="Path_12" data-name="Path 12" d="M0,0H33.513V31.792H0Z" fill="none"/>
    <path id="Path_13" data-name="Path 13" d="M9.3,16.568A26.384,26.384,0,0,0,20.783,28.046l3.832-3.832a1.732,1.732,0,0,1,1.777-.418,19.868,19.868,0,0,0,6.218.993,1.747,1.747,0,0,1,1.742,1.742v6.079a1.747,1.747,0,0,1-1.742,1.742A29.606,29.606,0,0,1,3,4.742,1.747,1.747,0,0,1,4.742,3h6.1a1.747,1.747,0,0,1,1.742,1.742,19.786,19.786,0,0,0,.993,6.218,1.748,1.748,0,0,1-.435,1.777Z" transform="translate(-1.307 -2.558)" fill="#333"/>
  </g>
</svg>
